<svg width="323.039990234375px" height="125.28000488281249px" xmlns="http://www.w3.org/2000/svg" viewBox="88.4800048828125 12.359997558593754 323.039990234375 125.28000488281249" style="background: rgba(147, 219, 233, 0);" preserveAspectRatio="xMidYMid"><defs><filter id="editing-hover" x="-100%" y="-100%" width="300%" height="300%"><feFlood flood-color="#5e6fa3" result="flood"></feFlood><feComposite operator="in" in2="SourceAlpha" in="flood" result="shadow"></feComposite><feOffset dx="1.4" dy="0.1" in="SourceGraphic" result="offset-1"></feOffset><feOffset dx="-1.4" dy="-0.1" in="shadow" result="offset-2"></feOffset><feMerge><feMergeNode in="offset-2"></feMergeNode><feMergeNode in="offset-1"></feMergeNode></feMerge></filter></defs><g filter="url(#editing-hover)"><g transform="translate(138.92999720573425, 97.17499923706055)"><path d="M25.22-36.22L25.22-36.22L25.22-36.22Q22.14-38.02 17.92-38.02L17.92-38.02L17.92-38.02Q13.70-38.02 11.07-35.84L11.07-35.84L11.07-35.84Q11.01-34.94 11.01-34.11L11.01-34.11L11.01-34.11Q11.01-23.87 21.95-23.87L21.95-23.87L21.63-21.50L20.86-21.50L20.86-21.50Q15.81-21.50 12.51-19.49L12.51-19.49L12.51-19.49Q9.22-17.47 9.22-12.99L9.22-12.99L9.22-12.99Q9.22-8.51 12.29-6.05L12.29-6.05L12.29-6.05Q15.36-3.58 19.52-3.58L19.52-3.58L19.52-3.58Q23.68-3.58 26.05-5.12L26.05-5.12L26.05-5.12Q26.50-6.02 26.50-7.94L26.50-7.94L26.50-7.94Q26.50-9.86 25.86-10.56L25.86-10.56L25.92-11.01L25.92-11.01Q27.52-11.97 29.12-13.70L29.12-13.70L29.12-13.70Q29.89-13.63 30.37-13.06L30.37-13.06L30.37-13.06Q30.85-12.48 30.85-11.71L30.85-11.71L30.85-11.71Q30.85-7.81 27.17-4.13L27.17-4.13L27.17-4.13Q23.49-0.45 19.14 0.96L19.14 0.96L19.14 0.96Q12.29 0.96 7.74-2.37L7.74-2.37L7.74-2.37Q3.20-5.70 3.20-11.84L3.20-11.84L3.20-11.84Q3.20-16.26 6.91-19.20L6.91-19.20L6.91-19.20Q10.62-22.14 15.36-22.14L15.36-22.14L15.36-22.40L15.36-22.40Q11.01-22.66 8.10-24.83L8.10-24.83L8.10-24.83Q5.18-27.01 5.18-30.85L5.18-30.85L5.18-30.85Q7.49-34.94 11.30-38.21L11.30-38.21L11.30-38.21Q15.10-41.47 19.46-42.62L19.46-42.62L19.46-42.62Q24-42.62 28.42-41.41L28.42-41.41L28.42-41.41Q29.44-41.92 31.04-43.39L31.04-43.39L32.38-42.50L32.38-42.50Q28.16-37.38 27.20-30.27L27.20-30.27L25.54-30.27L25.54-30.27Q25.54-33.79 25.22-36.22ZM55.74-1.02L55.42 0.38L55.42 0.38Q52.67 0 48.54 0L48.54 0L48.54 0Q44.42 0 42.56 0.26L42.56 0.26L42.37-0.77L42.37-0.77Q42.94-0.90 43.49-1.44L43.49-1.44L43.49-1.44Q44.03-1.98 44.03-2.43L44.03-2.43L44.03-2.43Q44.03-6.08 37.31-27.07L37.31-27.07L37.31-27.07Q36.42-29.89 35.78-31.17L35.78-31.17L35.78-31.17Q33.66-31.42 31.17-32.19L31.17-32.19L31.42-33.86L31.42-33.86Q33.98-33.34 38.78-33.34L38.78-33.34L38.78-33.34Q43.58-33.34 46.66-33.86L46.66-33.86L46.91-32.26L46.91-32.26Q43.46-31.49 42.18-31.30L42.18-31.30L42.18-31.30Q42.62-27.07 44.83-18.82L44.83-18.82L44.83-18.82Q47.04-10.56 49.60-3.52L49.60-3.52L49.60-3.52Q53.89-13.06 55.33-17.98L55.33-17.98L55.33-17.98Q56.77-22.91 56.77-27.01L56.77-27.01L56.77-27.01Q56.77-31.10 54.14-32.51L54.14-32.51L54.40-33.60L54.40-33.60Q56.32-33.28 59.30-33.28L59.30-33.28L59.30-33.28Q62.27-33.28 65.98-33.79L65.98-33.79L66.24-32.13L66.24-32.13Q64.06-31.42 62.14-31.10L62.14-31.10L62.14-31.10Q62.40-29.18 62.40-27.62L62.40-27.62L62.40-27.62Q62.40-26.05 61.92-23.84L61.92-23.84L61.92-23.84Q61.44-21.63 59.71-17.79L59.71-17.79L59.71-17.79Q57.47-13.06 51.65-2.11L51.65-2.11L51.65-2.11Q52.93-1.98 55.74-1.02L55.74-1.02ZM73.79-15.81L73.79-15.81Q73.98-10.11 75.90-6.91L75.90-6.91L75.90-6.91Q77.82-3.71 82.43-3.71L82.43-3.71L82.43-3.71Q87.04-3.71 90.94-7.62L90.94-7.62L91.84-6.72L91.84-6.72Q87.55-1.28 81.54 0.77L81.54 0.77L81.54 0.77Q75.33 0.77 71.81-3.17L71.81-3.17L71.81-3.17Q68.29-7.10 68.29-13.79L68.29-13.79L68.29-13.79Q68.29-20.48 72.45-26.37L72.45-26.37L72.45-26.37Q76.61-32.26 83.07-34.11L83.07-34.11L83.07-34.11Q87.74-34.11 93.63-33.15L93.63-33.15L93.57-31.74L93.57-31.74Q92.35-31.74 91.26-31.30L91.26-31.30L91.26-31.30Q90.05-28.42 89.66-24.45L89.66-24.45L88.06-24.45L88.06-24.45Q87.55-26.62 87.55-28.93L87.55-28.93L87.55-28.93Q85.12-30.14 81.79-30.14L81.79-30.14L81.79-30.14Q78.46-30.14 76.29-28.35L76.29-28.35L76.29-28.35Q74.11-24.38 73.79-18.88L73.79-18.88L73.79-18.88Q76.48-18.43 79.55-18.43L79.55-18.43L79.55-18.43Q84.86-18.43 85.95-20.67L85.95-20.67L87.30-20.48L87.30-20.48Q86.72-18.56 86.72-16.70L86.72-16.70L86.72-16.70Q86.72-14.85 87.17-12.16L87.17-12.16L85.63-11.90L85.63-11.90Q84.93-13.82 84.61-15.87L84.61-15.87L84.61-15.87Q82.05-16.13 79.52-16.13L79.52-16.13L79.52-16.13Q76.99-16.13 73.79-15.81L73.79-15.81ZM112.45-1.15L112.26 0.45L112.26 0.45Q108.93 0 104.80 0L104.80 0L104.80 0Q100.67 0 97.41 0.51L97.41 0.51L97.15-1.15L97.15-1.15Q99.20-1.79 100.99-2.11L100.99-2.11L100.99-2.11Q101.57-7.10 101.57-15.17L101.57-15.17L101.57-18.18L101.57-18.18Q101.57-26.75 100.93-31.36L100.93-31.36L100.93-31.36Q99.20-31.55 96.77-32.38L96.77-32.38L96.96-34.05L96.96-34.05Q100.61-33.34 104.61-33.34L104.61-33.34L104.61-33.34Q108.61-33.34 110.34-33.79L110.34-33.79L110.46-32.70L110.46-32.70Q108.74-32.26 108.74-31.23L108.74-31.23L108.74-31.23Q108.74-30.46 110.24-28L110.24-28L110.24-28Q111.74-25.54 113.15-23.23L113.15-23.23L113.15-23.23Q117.38-16.51 123.14-6.72L123.14-6.72L123.33-6.85L123.33-14.66L123.33-14.66Q123.33-23.23 122.43-27.55L122.43-27.55L122.43-27.55Q121.54-31.87 119.36-32.58L119.36-32.58L119.49-33.66L119.49-33.66Q121.15-33.34 124.48-33.34L124.48-33.34L124.48-33.34Q127.81-33.34 131.33-34.05L131.33-34.05L131.52-32.38L131.52-32.38Q128.90-31.55 127.10-31.36L127.10-31.36L127.10-31.36Q126.46-26.24 126.46-18.18L126.46-18.18L126.46-15.17L126.46-15.17Q126.46-5.44 127.10-1.98L127.10-1.98L127.10-1.98Q129.79-1.54 131.39-0.96L131.39-0.96L131.20 0.70L131.20 0.70Q128 0 125.18 0L125.18 0L125.18 0Q122.37 0 120.83 0.26L120.83 0.26L120.83 0.26Q120.83-1.15 118.88-4.48L118.88-4.48L118.88-4.48Q116.93-7.81 115.33-10.37L115.33-10.37L115.33-10.37Q110.14-18.75 105.15-27.39L105.15-27.39L104.90-27.26L104.90-18.69L104.90-18.69Q104.90-5.95 106.82-2.11L106.82-2.11L106.82-2.11Q109.70-1.79 112.45-1.15L112.45-1.15ZM157.63-29.89L157.63-29.89L157.63-29.89Q155.39-30.98 153.34-30.98L153.34-30.98L153.34-30.98Q151.30-30.98 150.59-30.72L150.59-30.72L150.59-30.72Q150.08-27.26 150.08-17.34L150.08-17.34L150.08-17.34Q150.08-7.42 150.78-2.11L150.78-2.11L150.78-2.11Q153.66-1.79 156.10-1.15L156.10-1.15L155.90 0.45L155.90 0.45Q152.58 0 148.26 0L148.26 0L148.26 0Q143.94 0 140.67 0.51L140.67 0.51L140.42-1.15L140.42-1.15Q141.70-1.54 144.83-2.11L144.83-2.11L144.83-2.11Q145.41-6.72 145.41-15.17L145.41-15.17L145.41-18.18L145.41-18.18Q145.41-22.66 144.70-30.72L144.70-30.72L144.70-30.72Q144-30.98 142.08-30.98L142.08-30.98L142.08-30.98Q140.16-30.98 137.98-30.08L137.98-30.08L137.98-30.08Q137.34-28.10 137.09-24.77L137.09-24.77L135.42-24.77L135.42-24.77Q135.42-30.02 133.70-32.90L133.70-32.90L134.02-33.98L134.02-33.98Q138.94-33.34 147.84-33.34L147.84-33.34L147.84-33.34Q156.74-33.34 162.18-34.05L162.18-34.05L162.56-32.83L162.56-32.83Q160.96-31.04 160.38-29.34L160.38-29.34L160.38-29.34Q159.81-27.65 159.68-24.77L159.68-24.77L158.08-24.77L158.08-24.77Q157.63-26.88 157.63-29.89ZM175.49-39.42L175.49-39.42L175.49-39.42Q174.78-34.62 174.78-21.50L174.78-21.50L174.78-21.50Q174.78-8.38 175.62-2.24L175.62-2.24L175.62-2.24Q179.01-1.92 182.66-1.02L182.66-1.02L182.46 0.51L182.46 0.51Q177.73 0 172.19 0L172.19 0L172.19 0Q166.66 0 163.26 0.51L163.26 0.51L163.01-1.09L163.01-1.09Q165.89-1.98 169.15-2.43L169.15-2.43L169.15-2.43Q169.86-7.68 169.86-18.94L169.86-18.94L169.86-22.72L169.86-22.72Q169.86-33.09 169.02-39.23L169.02-39.23L169.02-39.23Q165.76-39.68 162.88-40.58L162.88-40.58L163.14-42.18L163.14-42.18Q166.53-41.66 172.06-41.66L172.06-41.66L172.06-41.66Q177.60-41.66 182.34-42.18L182.34-42.18L182.53-40.64L182.53-40.64Q178.88-39.74 175.49-39.42ZM203.14-42.62L203.14-42.62Q210.94-42.62 214.94-37.95L214.94-37.95L214.94-37.95Q218.94-33.28 218.94-24.61L218.94-24.61L218.94-24.61Q218.94-15.94 214.56-8.99L214.56-8.99L214.56-8.99Q210.18-2.05 202.37 0.96L202.37 0.96L202.37 0.96Q194.88 0.96 190.34-4L190.34-4L190.34-4Q185.79-8.96 185.79-16.96L185.79-16.96L185.79-16.96Q185.79-30.02 195.26-38.59L195.26-38.59L196.03-38.08L196.03-38.08Q191.49-31.49 191.49-21.70L191.49-21.70L191.49-21.70Q191.49-14.72 194.72-9.18L194.72-9.18L194.72-9.18Q197.95-3.65 203.71-3.65L203.71-3.65L203.71-3.65Q207.49-3.65 210.05-5.89L210.05-5.89L210.05-5.89Q213.25-11.78 213.25-19.84L213.25-19.84L213.25-19.84Q213.25-30.40 209.22-35.33L209.22-35.33L209.22-35.33Q207.04-38.02 203.78-38.02L203.78-38.02L203.78-38.02Q202.11-38.02 200.70-37.06L200.70-37.06L200.70-37.06Q199.30-36.10 198.72-34.56L198.72-34.56L198.72-34.56Q198.72-33.28 199.30-31.58L199.30-31.58L199.30-31.58Q199.87-29.89 200.77-29.44L200.77-29.44L200.90-28.99L200.90-28.99Q199.49-27.26 198.78-25.34L198.78-25.34L198.78-25.34Q198.66-25.28 198.27-25.28L198.27-25.28L198.27-25.28Q195.97-25.28 195.97-29.38L195.97-29.38L195.97-29.38Q195.97-36.29 203.14-42.62L203.14-42.62Z" fill="#689cc5"></path></g></g><style>text {
  font-size: 64px;
  font-family: Arial Black;
  dominant-baseline: central;
  text-anchor: middle;
}</style></svg>