<svg id="wave" style="transform:rotate(0deg); transition: 0.3s" viewBox="0 0 1440 220" version="1.1" xmlns="http://www.w3.org/2000/svg"><defs><linearGradient id="sw-gradient-0" x1="0" x2="0" y1="1" y2="0"><stop stop-color="rgb(210, 224, 255)" offset="0%"></stop><stop stop-color="rgb(210, 224, 255)" offset="100%"></stop></linearGradient></defs><path style="transform:translate(0, 0px); opacity:1" fill="url(#sw-gradient-0)" d="M0,22L34.3,29.3C68.6,37,137,51,206,80.7C274.3,110,343,154,411,168.7C480,183,549,169,617,146.7C685.7,125,754,95,823,102.7C891.4,110,960,154,1029,150.3C1097.1,147,1166,95,1234,73.3C1302.9,51,1371,59,1440,69.7C1508.6,81,1577,95,1646,88C1714.3,81,1783,51,1851,62.3C1920,73,1989,125,2057,128.3C2125.7,132,2194,88,2263,58.7C2331.4,29,2400,15,2469,22C2537.1,29,2606,59,2674,69.7C2742.9,81,2811,73,2880,62.3C2948.6,51,3017,37,3086,33C3154.3,29,3223,37,3291,33C3360,29,3429,15,3497,36.7C3565.7,59,3634,117,3703,150.3C3771.4,183,3840,191,3909,179.7C3977.1,169,4046,139,4114,139.3C4182.9,139,4251,169,4320,176C4388.6,183,4457,169,4526,168.7C4594.3,169,4663,183,4731,183.3C4800,183,4869,169,4903,161.3L4937.1,154L4937.1,220L4902.9,220C4868.6,220,4800,220,4731,220C4662.9,220,4594,220,4526,220C4457.1,220,4389,220,4320,220C4251.4,220,4183,220,4114,220C4045.7,220,3977,220,3909,220C3840,220,3771,220,3703,220C3634.3,220,3566,220,3497,220C3428.6,220,3360,220,3291,220C3222.9,220,3154,220,3086,220C3017.1,220,2949,220,2880,220C2811.4,220,2743,220,2674,220C2605.7,220,2537,220,2469,220C2400,220,2331,220,2263,220C2194.3,220,2126,220,2057,220C1988.6,220,1920,220,1851,220C1782.9,220,1714,220,1646,220C1577.1,220,1509,220,1440,220C1371.4,220,1303,220,1234,220C1165.7,220,1097,220,1029,220C960,220,891,220,823,220C754.3,220,686,220,617,220C548.6,220,480,220,411,220C342.9,220,274,220,206,220C137.1,220,69,220,34,220L0,220Z"></path><defs><linearGradient id="sw-gradient-1" x1="0" x2="0" y1="1" y2="0"><stop stop-color="rgb(164, 181, 255)" offset="0%"></stop><stop stop-color="rgb(105, 128, 226)" offset="100%"></stop></linearGradient></defs><path style="transform:translate(0, 50px); opacity:0.9" fill="url(#sw-gradient-1)" d="M0,0L34.3,33C68.6,66,137,132,206,150.3C274.3,169,343,139,411,117.3C480,95,549,81,617,88C685.7,95,754,125,823,124.7C891.4,125,960,95,1029,95.3C1097.1,95,1166,125,1234,139.3C1302.9,154,1371,154,1440,157.7C1508.6,161,1577,169,1646,154C1714.3,139,1783,103,1851,84.3C1920,66,1989,66,2057,84.3C2125.7,103,2194,139,2263,150.3C2331.4,161,2400,147,2469,121C2537.1,95,2606,59,2674,62.3C2742.9,66,2811,110,2880,121C2948.6,132,3017,110,3086,91.7C3154.3,73,3223,59,3291,47.7C3360,37,3429,29,3497,44C3565.7,59,3634,95,3703,106.3C3771.4,117,3840,103,3909,95.3C3977.1,88,4046,88,4114,99C4182.9,110,4251,132,4320,150.3C4388.6,169,4457,183,4526,176C4594.3,169,4663,139,4731,132C4800,125,4869,139,4903,146.7L4937.1,154L4937.1,220L4902.9,220C4868.6,220,4800,220,4731,220C4662.9,220,4594,220,4526,220C4457.1,220,4389,220,4320,220C4251.4,220,4183,220,4114,220C4045.7,220,3977,220,3909,220C3840,220,3771,220,3703,220C3634.3,220,3566,220,3497,220C3428.6,220,3360,220,3291,220C3222.9,220,3154,220,3086,220C3017.1,220,2949,220,2880,220C2811.4,220,2743,220,2674,220C2605.7,220,2537,220,2469,220C2400,220,2331,220,2263,220C2194.3,220,2126,220,2057,220C1988.6,220,1920,220,1851,220C1782.9,220,1714,220,1646,220C1577.1,220,1509,220,1440,220C1371.4,220,1303,220,1234,220C1165.7,220,1097,220,1029,220C960,220,891,220,823,220C754.3,220,686,220,617,220C548.6,220,480,220,411,220C342.9,220,274,220,206,220C137.1,220,69,220,34,220L0,220Z"></path></svg>